# xmcd CD database file
#
# Track frame offsets:
#	150
#	20718
#	42205
#	74935
#	120534
#	149610
#	190687
#	247519
#	295897
#
# Disc length: 4289 seconds
#
# Revision: 0
# Processed by: cddbd v1.5.2PL0 Copyright (c) Steve Scherf et al.
# Submitted via: CDex 1.51
#
DISCID=8610bf09
DTITLE=Venezuelan Masters Orchestra - Live in France Dax Toros y Salsa
DYEAR=2009
DGENRE=Salsa
TTITLE0=Esta que arde
TTITLE1=Como camina
TTITLE2=Despertar en Venezuela
TTITLE3=Dile que venga
TTITLE4=El pachangon
TTITLE5=La voz d ela rumba
TTITLE6=Mama calunga
TTITLE7=Se necesita rumbero
TTITLE8=Quien la tumbo
EXTD=YEAR: 2009
EXTT0=
EXTT1=
EXTT2=
EXTT3=
EXTT4=
EXTT5=
EXTT6=
EXTT7=
EXTT8=
PLAYORDER=
